<?xml version="1.0" encoding="UTF-8" standalone="no"?>
<svg
   xmlns:dc="http://purl.org/dc/elements/1.1/"
   xmlns:cc="http://creativecommons.org/ns#"
   xmlns:rdf="http://www.w3.org/1999/02/22-rdf-syntax-ns#"
   xmlns:svg="http://www.w3.org/2000/svg"
   xmlns="http://www.w3.org/2000/svg"
   xmlns:sodipodi="http://sodipodi.sourceforge.net/DTD/sodipodi-0.dtd"
   xmlns:inkscape="http://www.inkscape.org/namespaces/inkscape"
   viewBox="0 0 32 32"
   width="16"
   height="16"
   stroke="white"
   stroke-linecap="round"
   stroke-linejoin="round"
   stroke-width="2"
   version="1.1"
   id="svg6"
   sodipodi:docname="marker-one-path.svg"
   inkscape:version="1.0.1 (3bc2e813f5, 2020-09-07)">
  <metadata
     id="metadata12">
    <rdf:RDF>
      <cc:Work
         rdf:about="">
        <dc:format>image/svg+xml</dc:format>
        <dc:type
           rdf:resource="http://purl.org/dc/dcmitype/StillImage" />
        <dc:title></dc:title>
      </cc:Work>
    </rdf:RDF>
  </metadata>
  <defs
     id="defs10" />
  <sodipodi:namedview
     pagecolor="#ffffff"
     bordercolor="#666666"
     borderopacity="1"
     objecttolerance="10"
     gridtolerance="10"
     guidetolerance="10"
     inkscape:pageopacity="0"
     inkscape:pageshadow="2"
     inkscape:window-width="1920"
     inkscape:window-height="1027"
     id="namedview8"
     showgrid="false"
     inkscape:zoom="27.4375"
     inkscape:cx="5.2183271"
     inkscape:cy="8.6983522"
     inkscape:window-x="1072"
     inkscape:window-y="331"
     inkscape:window-maximized="1"
     inkscape:current-layer="svg6" />
  <path
     id="path2"
     style="stroke-width:1;fill:#000000;fill-opacity:1"
     d="M 8 1 C 5 1 2.5 4 4 7.5 C 5.5 11 8 15 8 15 C 8 15 10.5 11 12 7.5 C 13.5 4 11 1 8 1 z M 7.9511719 3.5 A 2 2 0 0 1 8 3.5 A 2 2 0 0 1 10 5.5 A 2 2 0 0 1 8 7.5 A 2 2 0 0 1 6 5.5 A 2 2 0 0 1 7.9511719 3.5 z "
     transform="scale(2)" />
</svg>
